<svg width="36" height="36" viewBox="0 0 36 36" fill="none" xmlns="http://www.w3.org/2000/svg">
<rect width="36" height="36" rx="3" fill="#0071D8"/>
<path d="M24.23 25.1786C24.23 25.5006 24.102 25.8095 23.8743 26.0372C23.6465 26.2649 23.3377 26.3929 23.0157 26.3929H12.0871C11.765 26.3929 11.4562 26.2649 11.2284 26.0372C11.0007 25.8095 10.8728 25.5006 10.8728 25.1786V11.8215C10.8728 11.4994 11.0007 11.1906 11.2284 10.9628C11.4562 10.7351 11.765 10.6072 12.0871 10.6072H18.8698C19.1918 10.6072 19.5007 10.7351 19.7284 10.9628L23.8743 15.1087C24.102 15.3364 24.23 15.6452 24.23 15.9673V25.1786Z" stroke="#F8F8F8" stroke-width="1.21429" stroke-linecap="round" stroke-linejoin="round"/>
<path d="M18.2296 17.741H21.2654" stroke="#F8F8F8" stroke-width="1.21429" stroke-linecap="round" stroke-linejoin="round"/>
<path d="M18.2296 21.9531H21.2654" stroke="#F8F8F8" stroke-width="1.21429" stroke-linecap="round" stroke-linejoin="round"/>
<path d="M13.5338 21.8844L14.5512 22.9019L16.2469 20.5278" stroke="#F8F8F8" stroke-width="1.21429" stroke-linecap="round" stroke-linejoin="round"/>
<path d="M13.5338 17.5963L14.5512 18.6138L16.2469 16.2397" stroke="#F8F8F8" stroke-width="1.21429" stroke-linecap="round" stroke-linejoin="round"/>
</svg>
