<svg width="76" height="76" viewBox="0 0 76 76" fill="none" xmlns="http://www.w3.org/2000/svg">
<rect width="76" height="76" rx="8" fill="#F8F8F8"/>
<g clip-path="url(#clip0_160_1838)">
<path d="M54.2846 36.6428H43.4275C42.6779 36.6428 42.0703 37.2504 42.0703 38V54.2857C42.0703 55.0351 42.6779 55.6428 43.4275 55.6428H54.2846C55.034 55.6428 55.6417 55.0351 55.6417 54.2857V38C55.6417 37.2504 55.034 36.6428 54.2846 36.6428Z" stroke="#1A1A1A" stroke-width="2.71429" stroke-linecap="round" stroke-linejoin="round"/>
<path d="M54.2846 20.3572H43.4275C42.6779 20.3572 42.0703 20.9648 42.0703 21.7143V27.17C42.0703 27.9196 42.6779 28.5272 43.4275 28.5272H54.2846C55.034 28.5272 55.6417 27.9196 55.6417 27.17V21.7143C55.6417 20.9648 55.034 20.3572 54.2846 20.3572Z" stroke="#1A1A1A" stroke-width="2.71429" stroke-linecap="round" stroke-linejoin="round"/>
<path d="M32.5707 20.3572H21.7136C20.9641 20.3572 20.3564 20.9648 20.3564 21.7143V38C20.3564 38.7496 20.9641 39.3572 21.7136 39.3572H32.5707C33.3203 39.3572 33.9279 38.7496 33.9279 38V21.7143C33.9279 20.9648 33.3203 20.3572 32.5707 20.3572Z" stroke="#1A1A1A" stroke-width="2.71429" stroke-linecap="round" stroke-linejoin="round"/>
<path d="M32.5707 47.4729H21.7136C20.9641 47.4729 20.3564 48.0804 20.3564 48.83V54.2858C20.3564 55.0352 20.9641 55.6429 21.7136 55.6429H32.5707C33.3203 55.6429 33.9279 55.0352 33.9279 54.2858V48.83C33.9279 48.0804 33.3203 47.4729 32.5707 47.4729Z" stroke="#1A1A1A" stroke-width="2.71429" stroke-linecap="round" stroke-linejoin="round"/>
</g>
<defs>
<clipPath id="clip0_160_1838">
<rect width="38" height="38" fill="white" transform="translate(19 19)"/>
</clipPath>
</defs>
</svg>
