<svg width="76" height="76" viewBox="0 0 76 76" fill="none" xmlns="http://www.w3.org/2000/svg">
<g clip-path="url(#clip0_160_1158)">
<rect width="76" height="76" rx="8" fill="#F8F8F8"/>
<g clip-path="url(#clip1_160_1158)">
<path d="M86 6H-10V70H86V6Z" fill="#F8F8F8"/>
<path d="M38.001 13.1111L36.9022 16.4926L38.593 17.042L38.001 13.1111Z" fill="#1A1A1A"/>
<path d="M38.001 13.1111L39.0997 16.4926L37.4089 17.042L38.001 13.1111Z" fill="#1A1A1A"/>
<path d="M41.3809 15.5679H37.8253V17.3456L41.3809 15.5679Z" fill="#1A1A1A"/>
<path d="M41.3809 15.5679L38.5044 17.6578L37.4594 16.2195L41.3809 15.5679Z" fill="#1A1A1A"/>
<path d="M40.0889 19.5435L38.9901 16.1619L37.2994 16.7113L40.0889 19.5435Z" fill="#1A1A1A"/>
<path d="M40.0889 19.5435L37.2124 17.4536L38.2573 16.0153L40.0889 19.5435Z" fill="#1A1A1A"/>
<path d="M34.6182 15.5676H38.1737V17.3454L34.6182 15.5676Z" fill="#1A1A1A"/>
<path d="M34.6182 15.5676L37.4947 17.6575L38.5396 16.2193L34.6182 15.5676Z" fill="#1A1A1A"/>
<path d="M35.9111 19.5432L37.0099 16.1617L38.7006 16.711L35.9111 19.5432Z" fill="#1A1A1A"/>
<path d="M35.9111 19.5432L38.7876 17.4533L37.7427 16.0151L35.9111 19.5432Z" fill="#1A1A1A"/>
<path d="M38.001 55.7776L36.9022 59.1591L38.593 59.7085L38.001 55.7776Z" fill="#1A1A1A"/>
<path d="M38.001 55.7776L39.0997 59.1591L37.4089 59.7085L38.001 55.7776Z" fill="#1A1A1A"/>
<path d="M41.3809 58.2346H37.8253V60.0124L41.3809 58.2346Z" fill="#1A1A1A"/>
<path d="M41.3809 58.2346L38.5044 60.3245L37.4594 58.8863L41.3809 58.2346Z" fill="#1A1A1A"/>
<path d="M40.0889 62.21L38.9901 58.8284L37.2994 59.3778L40.0889 62.21Z" fill="#1A1A1A"/>
<path d="M40.0889 62.21L37.2124 60.1201L38.2573 58.6818L40.0889 62.21Z" fill="#1A1A1A"/>
<path d="M34.6182 58.2349H38.1737V60.0126L34.6182 58.2349Z" fill="#1A1A1A"/>
<path d="M34.6182 58.2349L37.4947 60.3248L38.5396 58.8865L34.6182 58.2349Z" fill="#1A1A1A"/>
<path d="M35.9111 62.2102L37.0099 58.8287L38.7006 59.378L35.9111 62.2102Z" fill="#1A1A1A"/>
<path d="M35.9111 62.2102L38.7876 60.1203L37.7427 58.682L35.9111 62.2102Z" fill="#1A1A1A"/>
<path d="M16.667 34.4438L15.5683 37.8254L17.259 38.3747L16.667 34.4438Z" fill="#1A1A1A"/>
<path d="M16.667 34.4438L17.7657 37.8254L16.075 38.3747L16.667 34.4438Z" fill="#1A1A1A"/>
<path d="M20.0479 36.9011H16.4923V38.6789L20.0479 36.9011Z" fill="#1A1A1A"/>
<path d="M20.0479 36.9011L17.1713 38.991L16.1264 37.5528L20.0479 36.9011Z" fill="#1A1A1A"/>
<path d="M18.7549 40.8762L17.6562 37.4947L15.9654 38.044L18.7549 40.8762Z" fill="#1A1A1A"/>
<path d="M18.7549 40.8762L15.8784 38.7863L16.9233 37.3481L18.7549 40.8762Z" fill="#1A1A1A"/>
<path d="M13.2852 36.9009H16.8407V38.6787L13.2852 36.9009Z" fill="#1A1A1A"/>
<path d="M13.2852 36.9009L16.1617 38.9908L17.2066 37.5525L13.2852 36.9009Z" fill="#1A1A1A"/>
<path d="M14.5771 40.8762L15.6759 37.4947L17.3666 38.044L14.5771 40.8762Z" fill="#1A1A1A"/>
<path d="M14.5771 40.8762L17.4537 38.7863L16.4087 37.3481L14.5771 40.8762Z" fill="#1A1A1A"/>
<path d="M25.2432 22.4014L28.1197 20.3115L27.0747 18.8732L25.2432 22.4014Z" fill="#1A1A1A"/>
<path d="M25.2432 22.4014L26.3419 19.0198L28.0327 19.5692L25.2432 22.4014Z" fill="#1A1A1A"/>
<path d="M23.9502 18.426L26.8267 20.5159L27.8717 19.0777L23.9502 18.426Z" fill="#1A1A1A"/>
<path d="M23.9502 18.426H27.5058V20.2038L23.9502 18.426Z" fill="#1A1A1A"/>
<path d="M27.332 15.969L26.2333 19.3505L27.9241 19.8999L27.332 15.969Z" fill="#1A1A1A"/>
<path d="M27.332 15.969L28.4308 19.3505L26.74 19.8999L27.332 15.969Z" fill="#1A1A1A"/>
<path d="M29.4248 22.4014L26.5483 20.3115L27.5933 18.8732L29.4248 22.4014Z" fill="#1A1A1A"/>
<path d="M29.4248 22.4014L28.3261 19.0198L26.6353 19.5692L29.4248 22.4014Z" fill="#1A1A1A"/>
<path d="M30.7158 18.426L27.8393 20.5159L26.7944 19.0777L30.7158 18.426Z" fill="#1A1A1A"/>
<path d="M30.7158 18.426H27.1603V20.2038L30.7158 18.426Z" fill="#1A1A1A"/>
<path d="M21.6152 30.2092L20.5165 26.8277L18.8257 27.3771L21.6152 30.2092Z" fill="#1A1A1A"/>
<path d="M21.6152 30.2092L18.7387 28.1193L19.7837 26.6811L21.6152 30.2092Z" fill="#1A1A1A"/>
<path d="M17.4355 30.2102L20.3121 28.1203L19.2671 26.682L17.4355 30.2102Z" fill="#1A1A1A"/>
<path d="M17.4355 30.2102L18.5343 26.8287L20.225 27.378L17.4355 30.2102Z" fill="#1A1A1A"/>
<path d="M16.1436 26.2346L19.0201 28.3245L20.065 26.8863L16.1436 26.2346Z" fill="#1A1A1A"/>
<path d="M16.1436 26.2346H19.6991V28.0124L16.1436 26.2346Z" fill="#1A1A1A"/>
<path d="M22.9072 26.2346L20.0307 28.3245L18.9858 26.8863L22.9072 26.2346Z" fill="#1A1A1A"/>
<path d="M22.9072 26.2346H19.3517V28.0124L22.9072 26.2346Z" fill="#1A1A1A"/>
<path d="M19.5254 23.7776L20.6241 27.1591L18.9334 27.7085L19.5254 23.7776Z" fill="#1A1A1A"/>
<path d="M19.5254 23.7776L18.4267 27.1591L20.1174 27.7085L19.5254 23.7776Z" fill="#1A1A1A"/>
<path d="M22.9053 47.5676H19.3497V49.3454L22.9053 47.5676Z" fill="#1A1A1A"/>
<path d="M22.9053 47.5676L20.0288 49.6575L18.9838 48.2193L22.9053 47.5676Z" fill="#1A1A1A"/>
<path d="M21.6143 51.5435L20.5155 48.1619L18.8248 48.7113L21.6143 51.5435Z" fill="#1A1A1A"/>
<path d="M21.6143 51.5435L18.7378 49.4536L19.7827 48.0153L21.6143 51.5435Z" fill="#1A1A1A"/>
<path d="M17.4346 51.543L20.3111 49.4531L19.2661 48.0148L17.4346 51.543Z" fill="#1A1A1A"/>
<path d="M17.4346 51.543L18.5333 48.1614L20.2241 48.7108L17.4346 51.543Z" fill="#1A1A1A"/>
<path d="M19.5244 45.1111L20.6231 48.4926L18.9324 49.042L19.5244 45.1111Z" fill="#1A1A1A"/>
<path d="M19.5244 45.1111L18.4257 48.4926L20.1165 49.042L19.5244 45.1111Z" fill="#1A1A1A"/>
<path d="M16.1436 47.5676H19.6991V49.3454L16.1436 47.5676Z" fill="#1A1A1A"/>
<path d="M16.1436 47.5676L19.0201 49.6575L20.065 48.2193L16.1436 47.5676Z" fill="#1A1A1A"/>
<path d="M30.7139 55.3762H27.1583V57.154L30.7139 55.3762Z" fill="#1A1A1A"/>
<path d="M30.7139 55.3762L27.8374 57.4661L26.7924 56.0279L30.7139 55.3762Z" fill="#1A1A1A"/>
<path d="M29.4229 59.3521L28.3241 55.9705L26.6334 56.5199L29.4229 59.3521Z" fill="#1A1A1A"/>
<path d="M29.4229 59.3521L26.5463 57.2621L27.5913 55.8239L29.4229 59.3521Z" fill="#1A1A1A"/>
<path d="M25.2432 59.3516L28.1197 57.2617L27.0747 55.8234L25.2432 59.3516Z" fill="#1A1A1A"/>
<path d="M25.2432 59.3516L26.3419 55.97L28.0327 56.5194L25.2432 59.3516Z" fill="#1A1A1A"/>
<path d="M27.333 52.9197L28.4317 56.3012L26.741 56.8506L27.333 52.9197Z" fill="#1A1A1A"/>
<path d="M27.333 52.9197L26.2343 56.3012L27.925 56.8506L27.333 52.9197Z" fill="#1A1A1A"/>
<path d="M23.9521 55.3762H27.5077V57.154L23.9521 55.3762Z" fill="#1A1A1A"/>
<path d="M23.9521 55.3762L26.8287 57.4661L27.8736 56.0279L23.9521 55.3762Z" fill="#1A1A1A"/>
<path d="M59.332 34.4441L60.4308 37.8256L58.74 38.375L59.332 34.4441Z" fill="#1A1A1A"/>
<path d="M59.332 34.4441L58.2333 37.8256L59.9241 38.375L59.332 34.4441Z" fill="#1A1A1A"/>
<path d="M55.9521 36.9011H59.5077V38.6789L55.9521 36.9011Z" fill="#1A1A1A"/>
<path d="M55.9521 36.9011L58.8287 38.991L59.8736 37.5528L55.9521 36.9011Z" fill="#1A1A1A"/>
<path d="M57.2441 40.8765L58.3429 37.4949L60.0336 38.0443L57.2441 40.8765Z" fill="#1A1A1A"/>
<path d="M57.2441 40.8765L60.1206 38.7866L59.0757 37.3483L57.2441 40.8765Z" fill="#1A1A1A"/>
<path d="M62.7148 36.9014H59.1593V38.6791L62.7148 36.9014Z" fill="#1A1A1A"/>
<path d="M62.7148 36.9014L59.8383 38.9913L58.7934 37.553L62.7148 36.9014Z" fill="#1A1A1A"/>
<path d="M61.4219 40.8765L60.3231 37.4949L58.6324 38.0443L61.4219 40.8765Z" fill="#1A1A1A"/>
<path d="M61.4219 40.8765L58.5454 38.7866L59.5903 37.3483L61.4219 40.8765Z" fill="#1A1A1A"/>
<path d="M50.7578 22.4014L47.8813 20.3115L48.9263 18.8732L50.7578 22.4014Z" fill="#1A1A1A"/>
<path d="M50.7578 22.4014L49.6591 19.0198L47.9683 19.5692L50.7578 22.4014Z" fill="#1A1A1A"/>
<path d="M52.0488 18.4263L49.1723 20.5162L48.1274 19.0779L52.0488 18.4263Z" fill="#1A1A1A"/>
<path d="M52.0488 18.4263H48.4933V20.204L52.0488 18.4263Z" fill="#1A1A1A"/>
<path d="M48.667 15.9692L49.7657 19.3508L48.075 19.9001L48.667 15.9692Z" fill="#1A1A1A"/>
<path d="M48.667 15.9692L47.5683 19.3508L49.259 19.9001L48.667 15.9692Z" fill="#1A1A1A"/>
<path d="M46.5752 22.4016L49.4517 20.3117L48.4067 18.8735L46.5752 22.4016Z" fill="#1A1A1A"/>
<path d="M46.5752 22.4016L47.6739 19.0201L49.3647 19.5694L46.5752 22.4016Z" fill="#1A1A1A"/>
<path d="M45.2842 18.4265L48.1607 20.5164L49.2056 19.0782L45.2842 18.4265Z" fill="#1A1A1A"/>
<path d="M45.2842 18.4265H48.8397V20.2043L45.2842 18.4265Z" fill="#1A1A1A"/>
<path d="M54.3857 30.2095L55.4845 26.8279L57.1752 27.3773L54.3857 30.2095Z" fill="#1A1A1A"/>
<path d="M54.3857 30.2095L57.2622 28.1196L56.2173 26.6813L54.3857 30.2095Z" fill="#1A1A1A"/>
<path d="M58.5664 30.21L55.6899 28.1201L56.7349 26.6818L58.5664 30.21Z" fill="#1A1A1A"/>
<path d="M58.5664 30.21L57.4677 26.8284L55.7769 27.3778L58.5664 30.21Z" fill="#1A1A1A"/>
<path d="M59.8574 26.2349L56.9809 28.3248L55.936 26.8865L59.8574 26.2349Z" fill="#1A1A1A"/>
<path d="M59.8574 26.2349H56.3019V28.0126L59.8574 26.2349Z" fill="#1A1A1A"/>
<path d="M53.0947 26.2344L55.9712 28.3243L57.0162 26.886L53.0947 26.2344Z" fill="#1A1A1A"/>
<path d="M53.0947 26.2344H56.6503V28.0122L53.0947 26.2344Z" fill="#1A1A1A"/>
<path d="M56.4756 23.7776L55.3769 27.1591L57.0676 27.7085L56.4756 23.7776Z" fill="#1A1A1A"/>
<path d="M56.4756 23.7776L57.5743 27.1591L55.8835 27.7085L56.4756 23.7776Z" fill="#1A1A1A"/>
<path d="M53.0938 47.5679H56.6493V49.3456L53.0938 47.5679Z" fill="#1A1A1A"/>
<path d="M53.0938 47.5679L55.9703 49.6578L57.0152 48.2195L53.0938 47.5679Z" fill="#1A1A1A"/>
<path d="M54.3838 51.5435L55.4825 48.1619L57.1733 48.7113L54.3838 51.5435Z" fill="#1A1A1A"/>
<path d="M54.3838 51.5435L57.2603 49.4536L56.2153 48.0153L54.3838 51.5435Z" fill="#1A1A1A"/>
<path d="M58.5654 51.5432L55.6889 49.4533L56.7339 48.0151L58.5654 51.5432Z" fill="#1A1A1A"/>
<path d="M58.5654 51.5432L57.4667 48.1617L55.7759 48.711L58.5654 51.5432Z" fill="#1A1A1A"/>
<path d="M56.4736 45.1111L55.3749 48.4926L57.0657 49.042L56.4736 45.1111Z" fill="#1A1A1A"/>
<path d="M56.4736 45.1111L57.5724 48.4926L55.8816 49.042L56.4736 45.1111Z" fill="#1A1A1A"/>
<path d="M59.8555 47.5676H56.2999V49.3454L59.8555 47.5676Z" fill="#1A1A1A"/>
<path d="M59.8555 47.5676L56.979 49.6575L55.934 48.2193L59.8555 47.5676Z" fill="#1A1A1A"/>
<path d="M45.2852 55.3765H48.8407V57.1542L45.2852 55.3765Z" fill="#1A1A1A"/>
<path d="M45.2852 55.3765L48.1617 57.4664L49.2066 56.0281L45.2852 55.3765Z" fill="#1A1A1A"/>
<path d="M46.5752 59.3521L47.6739 55.9705L49.3647 56.5199L46.5752 59.3521Z" fill="#1A1A1A"/>
<path d="M46.5752 59.3521L49.4517 57.2621L48.4067 55.8239L46.5752 59.3521Z" fill="#1A1A1A"/>
<path d="M50.7568 59.3518L47.8803 57.2619L48.9253 55.8237L50.7568 59.3518Z" fill="#1A1A1A"/>
<path d="M50.7568 59.3518L49.6581 55.9703L47.9673 56.5196L50.7568 59.3518Z" fill="#1A1A1A"/>
<path d="M48.665 52.9197L47.5663 56.3012L49.2571 56.8506L48.665 52.9197Z" fill="#1A1A1A"/>
<path d="M48.665 52.9197L49.7638 56.3012L48.073 56.8506L48.665 52.9197Z" fill="#1A1A1A"/>
<path d="M52.0469 55.3762H48.4913V57.154L52.0469 55.3762Z" fill="#1A1A1A"/>
<path d="M52.0469 55.3762L49.1704 57.4661L48.1254 56.0279L52.0469 55.3762Z" fill="#1A1A1A"/>
</g>
</g>
<defs>
<clipPath id="clip0_160_1158">
<rect width="76" height="76" rx="8" fill="white"/>
</clipPath>
<clipPath id="clip1_160_1158">
<rect width="96" height="64" fill="white" transform="translate(-10 6)"/>
</clipPath>
</defs>
</svg>
