<svg width="76" height="76" viewBox="0 0 76 76" fill="none" xmlns="http://www.w3.org/2000/svg">
<rect width="76" height="76" rx="8" fill="#F8F8F8"/>
<g clip-path="url(#clip0_160_2063)">
<path d="M51.4441 33.8807C51.4441 41.3103 45.4211 47.3332 37.9915 47.3332C30.5619 47.3332 24.5391 41.3103 24.5391 33.8807C24.5391 26.4511 30.5619 20.4282 37.9915 20.4282C45.4211 20.4282 51.4441 26.4511 51.4441 33.8807Z" stroke="#232324" stroke-width="2.71429" stroke-linecap="round" stroke-linejoin="round"/>
<path d="M38.5431 26.5768L40.3961 30.3045C40.4376 30.3988 40.5033 30.4804 40.5865 30.5409C40.6698 30.6015 40.7677 30.6389 40.8702 30.6492L44.9857 31.2741C45.1033 31.2894 45.2142 31.3379 45.3053 31.4139C45.3964 31.4899 45.464 31.5903 45.5002 31.7033C45.5363 31.8163 45.5396 31.9373 45.5095 32.0521C45.4795 32.1669 45.4173 32.2707 45.3304 32.3515L42.2923 35.2388C42.247 35.3252 42.2233 35.4213 42.2233 35.5189C42.2233 35.6165 42.247 35.7126 42.2923 35.799L42.874 39.893C42.8989 40.0113 42.8888 40.1343 42.8451 40.247C42.8014 40.3598 42.726 40.4574 42.6279 40.5281C42.5298 40.5988 42.4133 40.6396 42.2926 40.6454C42.1718 40.6512 42.0519 40.6219 41.9475 40.5609L38.2845 38.6217C38.1897 38.5789 38.0869 38.5567 37.9828 38.5567C37.8788 38.5567 37.776 38.5789 37.6812 38.6217L34.0182 40.5609C33.9137 40.6219 33.7939 40.6512 33.6731 40.6454C33.5523 40.6396 33.4358 40.5988 33.3378 40.5281C33.2397 40.4574 33.1642 40.3598 33.1206 40.247C33.0769 40.1343 33.0668 40.0113 33.0916 39.893L33.7812 35.799C33.8108 35.704 33.8165 35.6031 33.7977 35.5054C33.7789 35.4076 33.7362 35.3161 33.6734 35.2388L30.6353 32.3299C30.5547 32.2483 30.4981 32.1461 30.4718 32.0344C30.4454 31.9228 30.4503 31.806 30.486 31.697C30.5215 31.588 30.5865 31.4908 30.6736 31.4162C30.7608 31.3416 30.8668 31.2925 30.98 31.2741L35.0955 30.6708C35.198 30.6604 35.2958 30.6231 35.3791 30.5625C35.4624 30.5019 35.5281 30.4203 35.5695 30.3261L37.4226 26.5984C37.4722 26.4929 37.5503 26.4033 37.6481 26.3399C37.7459 26.2764 37.8596 26.2416 37.9761 26.2394C38.0927 26.2371 38.2076 26.2675 38.3078 26.3272C38.408 26.3868 38.4895 26.4733 38.5431 26.5768Z" stroke="#232324" stroke-width="2.71429" stroke-linecap="round" stroke-linejoin="round"/>
<path d="M26.3388 40.4792L20.3564 50.841L26.8205 49.109L28.5526 55.573L33.7431 46.5828" stroke="#232324" stroke-width="2.71429" stroke-linecap="round" stroke-linejoin="round"/>
<path d="M49.6602 40.4792L55.6425 50.841L49.1784 49.109L47.4464 55.573L42.2559 46.5828" stroke="#232324" stroke-width="2.71429" stroke-linecap="round" stroke-linejoin="round"/>
</g>
<defs>
<clipPath id="clip0_160_2063">
<rect width="38" height="38" fill="white" transform="translate(19 19)"/>
</clipPath>
</defs>
</svg>
