<svg width="36" height="36" viewBox="0 0 36 36" fill="none" xmlns="http://www.w3.org/2000/svg">
<rect width="36" height="36" rx="3" fill="#0071D8"/>
<g clip-path="url(#clip0_151_413)">
<path d="M15.7474 25.691C14.9573 26.2007 14.0157 26.4229 13.0811 26.3201C12.1465 26.2173 11.2757 25.7958 10.6153 25.1265L10.0379 24.5619C9.78479 24.303 9.64307 23.9553 9.64307 23.5933C9.64307 23.2312 9.78479 22.8834 10.0379 22.6246L12.4885 20.1996C12.7453 19.9473 13.0908 19.8059 13.4508 19.8059C13.8107 19.8059 14.1563 19.9473 14.4131 20.1996C14.672 20.4528 15.0197 20.5945 15.3817 20.5945C15.7438 20.5945 16.0915 20.4528 16.3504 20.1996L20.1995 16.3505C20.3279 16.224 20.4299 16.0732 20.4995 15.9069C20.5691 15.7406 20.6049 15.5621 20.6049 15.3819C20.6049 15.2016 20.5691 15.0231 20.4995 14.8568C20.4299 14.6905 20.3279 14.5397 20.1995 14.4132C19.9472 14.1564 19.8058 13.8109 19.8058 13.4509C19.8058 13.0909 19.9472 12.7454 20.1995 12.4886L22.6373 10.0509C22.8962 9.79773 23.2439 9.65601 23.6059 9.65601C23.9681 9.65601 24.3158 9.79773 24.5747 10.0509L25.1393 10.6282C25.8085 11.2886 26.2299 12.1594 26.3328 13.094C26.4357 14.0287 26.2135 14.9702 25.7037 15.7603C23.0478 19.6745 19.6684 23.0452 15.7474 25.691Z" stroke="#F8F8F8" stroke-width="1.28571" stroke-linecap="round" stroke-linejoin="round"/>
</g>
<defs>
<clipPath id="clip0_151_413">
<rect width="18" height="18" fill="white" transform="translate(9 9)"/>
</clipPath>
</defs>
</svg>
