<svg width="34" height="34" viewBox="0 0 34 34" fill="none" xmlns="http://www.w3.org/2000/svg">
<g clip-path="url(#clip0_199_177)">
<path d="M10.7225 16.355C10.7225 16.355 15.9344 14.1598 17.742 13.3869C18.435 13.0777 20.7849 12.0883 20.7849 12.0883C20.7849 12.0883 21.8694 11.6554 21.779 12.7066C21.7489 13.1395 21.5079 14.6545 21.2669 16.2932C20.9054 18.6121 20.5137 21.1474 20.5137 21.1474C20.5137 21.1474 20.4535 21.8585 19.9413 21.9822C19.4292 22.1059 18.5856 21.5494 18.435 21.4256C18.3144 21.3329 16.1754 19.9416 15.3921 19.2614C15.1812 19.0759 14.9402 18.7049 15.4222 18.272C16.5068 17.2517 17.8023 15.984 18.5856 15.1802C18.9471 14.8091 19.3086 13.9434 17.8023 14.9946C15.6633 16.5096 13.5544 17.9319 13.5544 17.9319C13.5544 17.9319 13.0724 18.241 12.1686 17.9628C11.2647 17.6845 10.2103 17.3135 10.2103 17.3135C10.2103 17.3135 9.48729 16.8497 10.7225 16.355Z" fill="white"/>
</g>
<defs>
<clipPath id="clip0_199_177">
<rect width="34" height="34" fill="white"/>
</clipPath>
</defs>
</svg>
