<svg width="34" height="34" viewBox="0 0 34 34" fill="none" xmlns="http://www.w3.org/2000/svg">
<path d="M13.4358 23.5208C13.4358 23.2719 13.4358 23.023 13.4358 22.7741C13.4376 22.7639 13.4372 22.7535 13.4348 22.7434C13.4323 22.7334 13.4279 22.724 13.4216 22.7157C13.4154 22.7075 13.4075 22.7006 13.3985 22.6955C13.3895 22.6905 13.3795 22.6873 13.3692 22.6862C12.7506 22.5109 12.1797 22.1987 11.6989 21.7728C11.3486 21.455 11.0569 21.0783 10.8372 20.66C10.5275 20.0557 10.3213 19.4039 10.2273 18.7317C10.1109 17.8886 10.0704 17.0367 10.1065 16.1863C10.1144 15.7898 10.1347 15.3979 10.1799 15.0014C10.252 14.248 10.4425 13.5107 10.7446 12.8164C11.1176 11.9628 11.7943 11.2771 12.6442 10.8915C13.2231 10.6273 13.8322 10.4344 14.4579 10.3171C15.0715 10.2012 15.6928 10.1301 16.3168 10.1043C16.8793 10.0844 17.4424 10.0927 18.0041 10.129C18.8079 10.1629 19.6045 10.2957 20.3757 10.5244C20.9475 10.6887 21.4915 10.9374 21.9896 11.2621C22.4749 11.5944 22.8674 12.0444 23.1302 12.5697C23.4392 13.1833 23.6492 13.8417 23.7525 14.5205C23.8196 14.9235 23.8637 15.33 23.8846 15.738C23.914 16.2437 23.9106 16.7517 23.8914 17.2552C23.8722 17.7586 23.8293 18.2474 23.7672 18.7408C23.6887 19.4812 23.4605 20.1981 23.0963 20.8481C22.6224 21.6704 21.8632 22.2913 20.9619 22.5938C20.3455 22.8091 19.7092 22.9623 19.0623 23.0511C18.5891 23.1165 18.1148 23.1638 17.6382 23.1829C17.2734 23.1998 16.9086 23.1953 16.5438 23.1897C16.3371 23.1897 16.1316 23.1694 15.9261 23.1514C15.9059 23.1476 15.885 23.1498 15.8661 23.1578C15.8472 23.1659 15.8312 23.1793 15.8199 23.1964C15.4043 23.6942 14.9729 24.1786 14.5381 24.6606C14.4589 24.7486 14.3672 24.8245 14.2659 24.8859C14.1994 24.9294 14.1236 24.9567 14.0446 24.9656C13.9656 24.9745 13.8856 24.9647 13.8111 24.9371C13.7366 24.9094 13.6696 24.8647 13.6156 24.8065C13.5616 24.7483 13.5221 24.6783 13.5002 24.602C13.4572 24.4666 13.4358 24.3252 13.437 24.1831C13.4358 23.9601 13.4358 23.7404 13.4358 23.5208ZM13.9384 24.4658L13.9915 24.4162L14.9345 23.3721C15.2974 22.9704 15.6599 22.5683 16.0221 22.1658C16.0399 22.1413 16.0639 22.1219 16.0917 22.1096C16.1194 22.0974 16.15 22.0927 16.1802 22.096C16.3033 22.1084 16.4264 22.1129 16.5506 22.114C16.9798 22.114 17.4089 22.114 17.8381 22.0836C18.2277 22.0532 18.6162 22.0059 19.0024 21.9451C19.4183 21.8729 19.83 21.7785 20.2357 21.6624C21.1392 21.4202 21.8382 20.9021 22.2776 20.063C22.5369 19.5471 22.6996 18.9883 22.7575 18.4141C22.8262 17.8729 22.8673 17.3286 22.8806 16.7832C22.9007 16.0982 22.8538 15.4128 22.7406 14.7367C22.6621 14.247 22.5209 13.7693 22.3205 13.3153C22.0652 12.7522 21.7038 12.2859 21.1471 11.9863C20.2933 11.5268 19.3695 11.3218 18.4174 11.217C18.1475 11.1878 17.8776 11.172 17.6065 11.1619C17.0516 11.1333 16.4954 11.1363 15.9407 11.1709C15.5419 11.2004 15.1451 11.2538 14.7527 11.3308C14.1755 11.4357 13.6172 11.6255 13.0959 11.894C12.7937 12.0462 12.5195 12.2484 12.285 12.492C11.905 12.9157 11.6262 13.4197 11.4696 13.9664C11.2839 14.6029 11.1826 15.261 11.1681 15.9239C11.1318 16.5867 11.1401 17.2512 11.1929 17.9129C11.2258 18.3067 11.292 18.6971 11.3906 19.0798C11.5373 19.6762 11.822 20.2301 12.2218 20.6971C12.6534 21.1737 13.2113 21.5188 13.8311 21.6928C13.909 21.7165 13.944 21.7435 13.944 21.8313C13.9373 22.1557 13.944 22.4801 13.944 22.8045L13.9384 24.4658Z" fill="white"/>
<path d="M13.1487 14.4057C13.1408 14.159 13.2751 13.9799 13.4378 13.8189C13.6523 13.614 13.8886 13.4331 14.1425 13.2794C14.2583 13.2082 14.3959 13.181 14.5302 13.203C14.6644 13.2249 14.7862 13.2944 14.8732 13.3988C15.1804 13.7208 15.4554 14.072 15.6942 14.4474C15.8125 14.6162 15.9018 14.8035 15.9585 15.0015C15.9811 15.0788 15.9826 15.1607 15.9628 15.2388C15.9429 15.3168 15.9024 15.3881 15.8456 15.4453C15.7153 15.5728 15.5764 15.6913 15.43 15.8001C15.3562 15.8587 15.3013 15.9377 15.2722 16.0272C15.2431 16.1167 15.241 16.2128 15.2662 16.3035C15.3566 16.7293 15.5616 17.1226 15.8591 17.4411C16.2206 17.8812 16.6864 18.2246 17.2143 18.4401C17.3441 18.5066 17.4927 18.5269 17.6356 18.4976C17.7138 18.4763 17.7834 18.4309 17.8343 18.368C17.9134 18.2678 17.9992 18.1709 18.0704 18.0639C18.1627 17.9305 18.3036 17.8382 18.4631 17.8069C18.6226 17.7755 18.788 17.8075 18.9242 17.8961C19.307 18.1176 19.6684 18.374 20.0038 18.662C20.0829 18.7296 20.1653 18.7949 20.2444 18.8636C20.3379 18.9347 20.4055 19.0345 20.4367 19.1476C20.4679 19.2608 20.4611 19.381 20.4172 19.4898C20.3474 19.6729 20.2457 19.8422 20.1168 19.9899C19.9566 20.212 19.7525 20.399 19.5171 20.5395C19.4046 20.6054 19.2781 20.6441 19.1479 20.6526C19.0177 20.661 18.8873 20.6388 18.7672 20.588C17.8535 20.2211 16.9997 19.7204 16.2341 19.1024C15.4852 18.4876 14.8307 17.7666 14.2916 16.9624C13.8379 16.2967 13.477 15.5726 13.2187 14.81C13.1912 14.7178 13.1686 14.6242 13.1509 14.5296C13.1459 14.4885 13.1451 14.447 13.1487 14.4057Z" fill="white"/>
<path d="M17.0476 13.2071C17.8121 13.2212 18.5474 13.5025 19.1253 14.0018C19.7031 14.5012 20.087 15.1869 20.2098 15.9396C20.2593 16.2132 20.2857 16.4905 20.2889 16.7685C20.2889 16.8338 20.2719 16.8812 20.2019 16.8879C20.1319 16.8947 20.1138 16.835 20.1138 16.7753C20.1243 16.2129 20.0086 15.6553 19.775 15.1433C19.5783 14.7226 19.287 14.3528 18.9236 14.0627C18.5603 13.7726 18.1347 13.57 17.6801 13.4707C17.4397 13.4152 17.1939 13.3865 16.9471 13.3851C16.9231 13.3855 16.8991 13.3825 16.876 13.3761C16.8562 13.3705 16.8395 13.3576 16.8291 13.3399C16.8188 13.3223 16.8158 13.3013 16.8206 13.2815C16.8208 13.2721 16.8228 13.2628 16.8266 13.2541C16.8304 13.2455 16.8358 13.2377 16.8427 13.2312C16.8495 13.2247 16.8575 13.2197 16.8664 13.2163C16.8752 13.2129 16.8846 13.2114 16.894 13.2117C16.9449 13.2049 16.9968 13.2071 17.0476 13.2071Z" fill="white"/>
<path d="M19.2269 16.2616C19.2231 15.9487 19.1458 15.641 19.0013 15.3633C18.8567 15.0856 18.6489 14.8455 18.3945 14.6623C18.0976 14.4543 17.7525 14.3252 17.3917 14.2872C17.3307 14.2793 17.2697 14.2759 17.2076 14.2692C17.1455 14.2624 17.1082 14.2365 17.1138 14.1734C17.1195 14.1104 17.159 14.0878 17.2268 14.0924C18.2274 14.1532 19.0789 14.7175 19.3409 15.7683C19.3889 15.9709 19.4127 16.1785 19.4121 16.3866C19.4121 16.4058 19.4121 16.4249 19.4121 16.443C19.4121 16.4993 19.3759 16.5364 19.3206 16.5353C19.3083 16.5349 19.2963 16.532 19.2852 16.5268C19.2741 16.5216 19.2641 16.5141 19.256 16.505C19.2478 16.4958 19.2417 16.4851 19.2378 16.4734C19.234 16.4618 19.2326 16.4495 19.2336 16.4373C19.2246 16.3844 19.2269 16.3303 19.2269 16.2616Z" fill="white"/>
<path d="M17.4742 15.0071C18.023 15.0443 18.4059 15.3124 18.5109 15.8947C18.5237 15.9693 18.5327 16.0444 18.538 16.1199C18.538 16.1807 18.5245 16.2326 18.4578 16.2326C18.3912 16.2326 18.3686 16.1875 18.3664 16.1199C18.3657 15.8967 18.2968 15.679 18.1687 15.4959C18.0342 15.3301 17.8409 15.2221 17.6289 15.1941C17.5815 15.1853 17.5336 15.1792 17.4855 15.1761C17.4064 15.1761 17.3624 15.1367 17.3725 15.0758C17.3827 15.015 17.4301 15.0038 17.4742 15.0071Z" fill="white"/>
</svg>
