<svg width="34" height="34" viewBox="0 0 34 34" fill="none" xmlns="http://www.w3.org/2000/svg">
<g clip-path="url(#clip0_199_172)">
<path d="M10 24L11.0036 20.2685C10.1942 18.8148 9.93708 17.1186 10.2793 15.491C10.6216 13.8633 11.5403 12.4135 12.8669 11.4076C14.1934 10.4016 15.8389 9.90698 17.5013 10.0145C19.1636 10.1219 20.7315 10.8243 21.917 11.9926C23.1025 13.161 23.8263 14.717 23.9554 16.3751C24.0846 18.0332 23.6105 19.6822 22.6201 21.0194C21.6297 22.3567 20.1895 23.2926 18.5637 23.6553C16.938 24.018 15.2357 23.7833 13.7693 22.9941L10 24ZM13.9511 21.5978L14.1842 21.7358C15.2463 22.3643 16.4869 22.6244 17.7125 22.4756C18.9382 22.3267 20.0801 21.7772 20.9603 20.9128C21.8405 20.0484 22.4096 18.9176 22.5788 17.6966C22.748 16.4756 22.508 15.233 21.8959 14.1624C21.2839 13.0918 20.3344 12.2535 19.1953 11.7779C18.0562 11.3024 16.7915 11.2164 15.5983 11.5333C14.4051 11.8503 13.3505 12.5524 12.5987 13.5302C11.847 14.508 11.4403 15.7066 11.4421 16.9393C11.4411 17.9613 11.7243 18.9636 12.26 19.8346L12.4062 20.0752L11.8452 22.1579L13.9511 21.5978Z" fill="white"/>
<path fill-rule="evenodd" clip-rule="evenodd" d="M19.6091 17.8975C19.4724 17.7875 19.3124 17.71 19.1413 17.671C18.9701 17.6321 18.7923 17.6326 18.6213 17.6727C18.3645 17.7792 18.1986 18.1815 18.0326 18.3827C17.9976 18.4309 17.9462 18.4647 17.888 18.4778C17.8298 18.4909 17.7688 18.4823 17.7165 18.4537C16.7763 18.086 15.9882 17.4118 15.4802 16.5406C15.4369 16.4862 15.4164 16.4172 15.423 16.348C15.4296 16.2789 15.4629 16.215 15.5158 16.1698C15.7009 15.9869 15.8367 15.7603 15.9109 15.511C15.9273 15.2361 15.8643 14.9623 15.7291 14.7221C15.6247 14.3855 15.4259 14.0857 15.1562 13.8583C15.0171 13.7958 14.8629 13.7749 14.7122 13.798C14.5615 13.8211 14.4207 13.8872 14.3067 13.9885C14.109 14.1588 13.952 14.3713 13.8474 14.6102C13.7428 14.8491 13.6932 15.1084 13.7022 15.369C13.7028 15.5154 13.7214 15.6611 13.7575 15.8029C13.8493 16.1437 13.9904 16.4693 14.1764 16.7694C14.3105 16.9992 14.4569 17.2217 14.6149 17.436C15.1284 18.1397 15.7738 18.7372 16.5154 19.1952C16.8875 19.428 17.2853 19.6173 17.7007 19.7593C18.1323 19.9546 18.6088 20.0296 19.0797 19.9763C19.3479 19.9357 19.6021 19.83 19.8198 19.6683C20.0375 19.5067 20.2121 19.2941 20.3282 19.0493C20.3964 18.9014 20.4171 18.7361 20.3875 18.576C20.3163 18.2486 19.8778 18.0553 19.6091 17.8975Z" fill="white"/>
</g>
<defs>
<clipPath id="clip0_199_172">
<rect width="34" height="34" fill="white"/>
</clipPath>
</defs>
</svg>
